<?xml version="1.0" encoding="UTF-8" standalone="no"?>
<!-- Created with Inkscape (http://www.inkscape.org/) -->

<svg
   xmlns:dc="http://purl.org/dc/elements/1.1/"
   xmlns:cc="http://creativecommons.org/ns#"
   xmlns:rdf="http://www.w3.org/1999/02/22-rdf-syntax-ns#"
   xmlns:svg="http://www.w3.org/2000/svg"
   xmlns="http://www.w3.org/2000/svg"
   xmlns:sodipodi="http://sodipodi.sourceforge.net/DTD/sodipodi-0.dtd"
   xmlns:inkscape="http://www.inkscape.org/namespaces/inkscape"
   id="svg2985"
   version="1.1"
   inkscape:version="0.48.1 "
   width="765"
   height="990"
   xml:space="preserve"
   sodipodi:docname="JetForward.ai"><metadata
     id="metadata2991"><rdf:RDF><cc:Work
         rdf:about=""><dc:format>image/svg+xml</dc:format><dc:type
           rdf:resource="http://purl.org/dc/dcmitype/StillImage" /><dc:title></dc:title></cc:Work></rdf:RDF></metadata><defs
     id="defs2989"><clipPath
       clipPathUnits="userSpaceOnUse"
       id="clipPath2999"><path
         d="M 0,792 612,792 612,0 0,0 0,792 z"
         id="path3001" /></clipPath></defs><sodipodi:namedview
     pagecolor="#ffffff"
     bordercolor="#666666"
     borderopacity="1"
     objecttolerance="10"
     gridtolerance="10"
     guidetolerance="10"
     inkscape:pageopacity="0"
     inkscape:pageshadow="2"
     inkscape:window-width="1366"
     inkscape:window-height="706"
     id="namedview2987"
     showgrid="false"
     inkscape:zoom="1.4913525"
     inkscape:cx="537.38775"
     inkscape:cy="534.50809"
     inkscape:window-x="-8"
     inkscape:window-y="-8"
     inkscape:window-maximized="1"
     inkscape:current-layer="g2993" /><g
     id="g2993"
     inkscape:groupmode="layer"
     inkscape:label="JetForward"
     transform="matrix(1.25,0,0,-1.25,0,990)"><g
       id="g3003"
       transform="translate(131.9521,393.667)"><path
         d="m 0,0 c -2.32,0 -4.209,1.825 -4.209,4.082 0,2.255 1.889,4.087 4.209,4.087 2.315,0 4.146,-1.767 4.146,-4.087 C 4.146,1.825 2.315,0 0,0 m -7.807,-50.136 c -1.341,0 -2.988,0.184 -4.209,0.551 l 0.428,5.609 c 1.163,-0.423 2.563,-0.673 3.781,-0.673 3.536,0 4.577,1.53 4.577,6.343 l 0,33.79 6.463,0 0,-33.177 c 0,-8.114 -2.687,-12.443 -11.04,-12.443"
         style="fill:#932923;fill-opacity:1;fill-rule:nonzero;stroke:none"
         id="path3005"
         inkscape:connector-curvature="0" /></g><g
       id="g3007"
       transform="translate(153.415,384.9424)"><path
         d="m 0,0 c -3.656,0 -6.219,-2.683 -6.767,-6.77 l 12.871,0 C 6.226,-2.624 3.845,0 0,0 m 12.442,-11.341 -19.331,0 c -0.181,-7.016 2.927,-10.188 8.962,-10.188 3.113,0 6.343,0.731 8.847,1.953 l 0.609,-5.186 C 8.48,-26.037 4.76,-26.715 1.04,-26.715 c -9.457,0 -14.642,4.885 -14.642,15.555 0,9.145 5.005,15.978 13.849,15.978 8.659,0 12.381,-5.915 12.381,-13.11 0,-0.856 -0.059,-1.892 -0.186,-3.049"
         style="fill:#932923;fill-opacity:1;fill-rule:nonzero;stroke:none"
         id="path3009"
         inkscape:connector-curvature="0" /></g><g
       id="g3011"
       transform="translate(181.8965,358.2939)"><path
         d="m 0,0 c -6.463,0 -8.416,2.498 -8.416,9.271 l 0,16.523 -5.793,0 0,5.063 5.793,0 0,9.638 6.466,1.766 0,-11.404 7.988,0 0,-5.063 -7.927,0 0,-14.515 c 0,-4.512 0.912,-5.731 3.962,-5.731 1.341,0 2.807,0.181 3.965,0.489 l 0,-5.369 C 4.266,0.301 2.014,0 0,0"
         style="fill:#932923;fill-opacity:1;fill-rule:nonzero;stroke:none"
         id="path3013"
         inkscape:connector-curvature="0" /></g><g
       id="g3015"
       transform="translate(218,400.311)"><path
         d="m 0,0 c -1.584,0.428 -3.412,0.673 -4.937,0.673 -5.184,0 -8.294,-2.99 -9.454,-9.699 l -0.37,-2.134 9.518,0 -0.548,-2.562 -9.454,0 -5.671,-29.702 c -1.955,-10.122 -6.343,-13.907 -13.541,-13.907 -1.772,0 -3.536,0.184 -5.183,0.551 l 0.857,2.927 c 1.703,-0.545 3.533,-0.734 4.997,-0.734 5.183,0 8.11,2.809 9.635,10.922 l 5.734,29.943 -7.078,0 0.551,2.562 7.011,0 0.368,2.012 c 1.524,8.54 6.098,12.442 13.301,12.442 1.762,0 3.351,-0.182 5.177,-0.548 L 0,0 z"
         style="fill:#231f20;fill-opacity:1;fill-rule:nonzero;stroke:none"
         id="path3017"
         inkscape:connector-curvature="0" /></g><g
       id="g3019"
       transform="translate(225.7461,387.0176)"><path
         d="m 0,0 c -7.685,0 -13.111,-8.174 -13.111,-17.322 0,-5.673 2.317,-8.658 7.808,-8.658 6.527,0 13.049,6.708 13.049,17.564 C 7.746,-3.05 5.242,0 0,0 m -6.038,-28.663 c -6.77,0 -10.429,3.656 -10.429,10.673 0,11.524 6.889,20.616 16.956,20.616 7.318,0 10.673,-4.396 10.673,-10.8 0,-12.559 -8.419,-20.489 -17.2,-20.489"
         style="fill:#231f20;fill-opacity:1;fill-rule:nonzero;stroke:none"
         id="path3021"
         inkscape:connector-curvature="0" /></g><g
       id="g3023"
       transform="translate(257.6416,386.4717)"><path
         d="m 0,0 c -6.645,1.703 -13.232,-13.845 -14.451,-20.499 l -1.341,-7.134 -3.172,0 3.044,15.795 2.749,14.518 3.228,0 c -0.546,-2.93 -1.525,-6.647 -3.657,-13.171 l 0.122,-0.065 c 3.657,8.294 7.624,14.88 14.029,13.728 L 0,0 z"
         style="fill:#231f20;fill-opacity:1;fill-rule:nonzero;stroke:none"
         id="path3025"
         inkscape:connector-curvature="0" /></g><g
       id="g3027"
       transform="translate(288.9712,358.8389)"><path
         d="m 0,0 -3.84,0 -3.049,21.226 c -0.245,1.772 -0.489,3.659 -0.607,5.425 l -0.061,0 L -20.794,0 l -4.085,0 -3.478,30.313 3.478,0 1.953,-20.736 c 0.239,-2.621 0.484,-5.125 0.484,-6.283 l 0.062,0 13.543,27.019 3.962,0 2.866,-20.675 c 0.367,-2.805 0.607,-5.186 0.668,-6.4 l 0.061,0 13.783,28.296 2.871,-1.221 L 0,0 z"
         style="fill:#231f20;fill-opacity:1;fill-rule:nonzero;stroke:none"
         id="path3029"
         inkscape:connector-curvature="0" /></g><g
       id="g3031"
       transform="translate(318.6738,386.959)"><path
         d="m 0,0 c -10.917,0 -14.818,-10.497 -14.818,-19.155 0,-4.875 1.581,-6.767 3.839,-6.767 7.134,0 14.084,14.211 15.675,22.38 l 0.551,2.866 C 3.778,-0.309 2.07,0 0,0 m 3.172,-28.12 -3.356,0 c 0.546,2.927 1.949,7.807 4.146,14.943 l -0.122,0.059 c -1.887,-4.814 -6.889,-15.547 -15.486,-15.547 -4.151,0 -6.466,2.682 -6.466,8.964 0,10.915 5.425,22.258 18.663,22.258 3.227,0 5.976,-0.365 8.291,-0.854 C 5.063,-17.993 4.391,-21.593 3.172,-28.12"
         style="fill:#231f20;fill-opacity:1;fill-rule:nonzero;stroke:none"
         id="path3033"
         inkscape:connector-curvature="0" /></g><g
       id="g3035"
       transform="translate(347.8213,386.4717)"><path
         d="m 0,0 c -6.645,1.703 -13.232,-13.845 -14.451,-20.499 l -1.341,-7.134 -3.172,0 3.049,15.795 2.743,14.518 3.234,0 c -0.546,-2.93 -1.525,-6.647 -3.657,-13.171 l 0.122,-0.065 c 3.657,8.294 7.624,14.88 14.024,13.728 L 0,0 z"
         style="fill:#231f20;fill-opacity:1;fill-rule:nonzero;stroke:none"
         id="path3037"
         inkscape:connector-curvature="0" /></g><g
       id="g3039"
       transform="translate(362.7061,386.959)"><path
         d="m 0,0 c -10.918,0 -14.818,-10.497 -14.818,-19.155 0,-4.875 1.586,-6.767 3.839,-6.767 7.134,0 14.089,14.211 15.675,22.38 l 0.545,2.866 C 3.783,-0.309 2.07,0 0,0 m 5.241,-17.142 -2.07,-10.978 -3.294,0 c 0.49,2.927 1.892,7.807 4.085,14.943 l -0.123,0.059 c -1.887,-4.814 -6.889,-15.547 -15.486,-15.547 -4.146,0 -6.465,2.682 -6.465,8.964 0,10.915 5.429,22.258 18.663,22.258 1.886,0 3.471,-0.184 5.18,-0.423 l 2.687,14.27 3.228,0 -6.405,-33.546 z"
         style="fill:#231f20;fill-opacity:1;fill-rule:nonzero;stroke:none"
         id="path3041"
         inkscape:connector-curvature="0" /></g><g
       id="g3043"
       transform="translate(204.5576,348.2686)"><path
         d="m 0,0 c -2.971,0 -3.618,-0.897 -3.618,-1.714 0,-0.708 0.492,-1.162 1.293,-1.162 1.392,0 2.325,1.336 2.325,2.688 L 0,0 z m 0.132,-4.288 c 0,0.611 0.021,1.244 0.1,1.754 l -0.021,0.02 c -0.459,-1.127 -1.636,-1.964 -3.143,-1.964 -1.622,0 -2.649,0.914 -2.649,2.423 0,2.167 2.169,3.432 5.581,3.432 L 0,1.979 C 0,3.167 -0.495,3.773 -1.979,3.773 -2.855,3.773 -4,3.508 -4.801,3.009 L -4.99,4.742 c 0.936,0.367 2.114,0.632 3.333,0.632 2.896,0 3.697,-1.254 3.697,-3.196 l 0,-3.876 c 0,-0.816 0.015,-1.79 0.056,-2.59 l -1.964,0 z"
         style="fill:#932923;fill-opacity:1;fill-rule:nonzero;stroke:none"
         id="path3045"
         inkscape:connector-curvature="0" /></g><g
       id="g3047"
       transform="translate(213.5908,343.9805)"><path
         d="m 0,0 -2.078,0 -3.549,9.474 2.249,0 1.772,-5.013 C -1.377,3.809 -1.165,3.146 -1,2.514 l 0.023,0 c 0.156,0.596 0.342,1.259 0.556,1.871 l 1.808,5.089 2.191,0 L 0,0 z"
         style="fill:#932923;fill-opacity:1;fill-rule:nonzero;stroke:none"
         id="path3049"
         inkscape:connector-curvature="0" /></g><path
       d="m 218.771,353.454 2.04,0 0,-9.474 -2.04,0 0,9.474 z m 1.029,1.407 c -0.724,0 -1.321,0.572 -1.321,1.281 0,0.698 0.597,1.269 1.321,1.269 0.699,0 1.29,-0.551 1.29,-1.269 0,-0.709 -0.591,-1.281 -1.29,-1.281"
       style="fill:#932923;fill-opacity:1;fill-rule:nonzero;stroke:none"
       id="path3051"
       inkscape:connector-curvature="0" /><g
       id="g3053"
       transform="translate(228.6934,348.2686)"><path
         d="m 0,0 c -2.973,0 -3.615,-0.897 -3.615,-1.714 0,-0.708 0.494,-1.162 1.295,-1.162 1.392,0 2.32,1.336 2.32,2.688 L 0,0 z m 0.132,-4.288 c 0,0.611 0.026,1.244 0.097,1.754 l -0.015,0.02 c -0.459,-1.127 -1.642,-1.964 -3.146,-1.964 -1.622,0 -2.647,0.914 -2.647,2.423 0,2.167 2.173,3.432 5.579,3.432 l 0,0.602 c 0,1.188 -0.495,1.794 -1.979,1.794 -0.872,0 -2.019,-0.265 -2.825,-0.764 l -0.188,1.733 c 0.933,0.367 2.121,0.632 3.34,0.632 2.891,0 3.692,-1.254 3.692,-3.196 l 0,-3.876 c 0,-0.816 0.015,-1.79 0.061,-2.59 l -1.969,0 z"
         style="fill:#932923;fill-opacity:1;fill-rule:nonzero;stroke:none"
         id="path3055"
         inkscape:connector-curvature="0" /></g><g
       id="g3057"
       transform="translate(236.5664,343.8066)"><path
         d="m 0,0 c -2.019,0 -2.631,0.785 -2.631,2.901 l 0,5.161 -1.81,0 0,1.585 1.81,0 0,3.009 2.014,0.551 0,-3.56 2.499,0 0,-1.585 -2.479,0 0,-4.534 c 0,-1.407 0.286,-1.789 1.244,-1.789 0.414,0 0.878,0.056 1.235,0.148 l 0,-1.673 C 1.326,0.097 0.627,0 0,0"
         style="fill:#932923;fill-opacity:1;fill-rule:nonzero;stroke:none"
         id="path3059"
         inkscape:connector-curvature="0" /></g><path
       d="m 240.641,353.454 2.04,0 0,-9.474 -2.04,0 0,9.474 z m 1.03,1.407 c -0.724,0 -1.316,0.572 -1.316,1.281 0,0.698 0.592,1.269 1.316,1.269 0.704,0 1.295,-0.551 1.295,-1.269 0,-0.709 -0.591,-1.281 -1.295,-1.281"
       style="fill:#932923;fill-opacity:1;fill-rule:nonzero;stroke:none"
       id="path3061"
       inkscape:connector-curvature="0" /><g
       id="g3063"
       transform="translate(249.4014,351.9248)"><path
         d="m 0,0 c -1.234,0 -2.438,-0.948 -2.438,-3.121 0,-2.137 0.836,-3.258 2.422,-3.258 1.316,0 2.417,1.025 2.417,3.218 C 2.401,-1.138 1.622,0 0,0 m -0.209,-8.134 c -2.626,0 -4.34,1.469 -4.34,4.799 0,2.86 1.846,5.053 4.727,5.053 2.53,0 4.324,-1.407 4.324,-4.747 0,-2.917 -1.907,-5.105 -4.711,-5.105"
         style="fill:#932923;fill-opacity:1;fill-rule:nonzero;stroke:none"
         id="path3065"
         inkscape:connector-curvature="0" /></g><g
       id="g3067"
       transform="translate(262.0371,343.9805)"><path
         d="m 0,0 0,6.099 c 0,1.182 -0.321,1.866 -1.407,1.866 -1.433,0 -2.479,-1.499 -2.479,-3.392 l 0,-4.573 -2.039,0 0,9.474 1.943,0 c 0,-0.499 -0.041,-1.321 -0.133,-1.851 l 0.02,-0.02 c 0.551,1.218 1.693,2.059 3.294,2.059 2.157,0 2.82,-1.355 2.82,-3.028 L 2.019,0 0,0 z"
         style="fill:#932923;fill-opacity:1;fill-rule:nonzero;stroke:none"
         id="path3069"
         inkscape:connector-curvature="0" /></g><g
       id="g3071"
       transform="translate(408.9248,448.4834)"
       inkscape:export-filename="S:\jetforward\assets\logo square.png"
       inkscape:export-xdpi="54.130001"
       inkscape:export-ydpi="54.130001"
       style="fill:#000000;fill-opacity:1.0"><path
         d="m 0,0 c 9.658,-4.185 25.675,-11.145 29.504,-12.809 0.775,0.26 1.836,0.55 2.861,0.61 1.927,0.106 2.3,-1.574 2.264,-2.582 -0.011,-0.068 -0.016,-0.226 -0.025,-0.461 4.604,-2.386 33.7,-17.472 34.434,-17.843 0.801,-0.408 1.219,-1.099 0.189,-1.062 -1.025,0.041 -2.59,0.332 -3.804,0.971 -1.102,0.572 -26.036,12.217 -31.008,14.537 -0.261,-4.684 -0.704,-12.361 -0.903,-15.965 5.104,0.587 15.171,1.657 18.628,1.641 6.292,-0.037 13.314,-2.343 16.801,-6.635 3.498,-4.294 3.799,-6.779 4.967,-9.145 0.393,-0.786 2.534,-2.961 3.131,-3.89 0.592,-0.933 1.529,-5.172 -2.447,-7.385 -3.984,-2.212 -7.522,-3.434 -18.939,-2.407 -1.321,0.12 -2.377,0.209 -3.233,0.276 -0.025,-0.757 -0.122,-1.411 -0.275,-1.966 4.589,-1.81 17.959,-7.106 31.339,-12.404 L 83.484,0 0,0 z"
         style="fill:#000000;fill-opacity:1.0;fill-rule:nonzero;stroke:none"
         id="path3073"
         inkscape:connector-curvature="0" /></g><g
       id="g3075"
       transform="translate(427.0879,406.1563)"
       inkscape:export-filename="S:\jetforward\assets\logo square.png"
       inkscape:export-xdpi="54.130001"
       inkscape:export-ydpi="54.130001"
       style="fill:#000000;fill-opacity:1.0"><path
         d="m 0,0 c -0.662,1.296 -1.596,3.034 -2.044,3.772 -3.075,0.093 -4.401,1.345 -4.9,1.891 -2.081,2.27 -1.434,6.275 -0.23,7.887 2.029,2.726 5.308,4.005 8.831,4.304 2.719,0.226 4.228,-1.411 4.952,-2.539 l 2.549,11.436 c -4.395,2.146 -23.864,11.648 -31.783,15.576 l -1.173,0 0,-35.14 C -14.227,2.14 -5.808,-2.297 -1.718,-4.456 -1.396,-2.98 -0.866,-1.319 0,0"
         style="fill:#000000;fill-opacity:1.0;fill-rule:nonzero;stroke:none"
         id="path3077"
         inkscape:connector-curvature="0" /></g><g
       id="g3079"
       transform="translate(472.9961,371.2051)"
       inkscape:export-filename="S:\jetforward\assets\logo square.png"
       inkscape:export-xdpi="54.130001"
       inkscape:export-ydpi="54.130001"
       style="fill:#841114;fill-opacity:1"><path
         d="m 0,0 c -0.311,-0.367 -0.606,-0.288 -0.662,-0.006 -0.036,0.164 -0.327,1.658 -0.541,2.833 -7.031,2.287 -12.595,4.105 -14.905,4.878 -0.281,-0.301 -1.789,-1.934 -2.065,-2.239 -0.286,-0.352 -0.525,-0.244 -0.556,0.046 -0.015,0.178 -0.148,1.912 -0.25,3.156 -2.993,0.91 -7.567,2.065 -9.8,2.621 -1.199,0.095 -2.28,0.232 -2.759,0.424 -0.383,0.158 -6.89,4.232 -16.119,10.065 -0.607,-0.494 -1.81,-1.491 -2.06,-1.717 -0.342,-0.307 -0.56,-0.172 -0.551,0.117 0.005,0.188 0.097,1.899 0.168,3.14 -4.038,2.557 -8.5,5.38 -13.155,8.331 -0.592,-0.473 -1.806,-1.431 -2.056,-1.649 -0.335,-0.295 -0.56,-0.16 -0.55,0.121 0.006,0.177 0.091,1.884 0.158,3.073 -1.32,0.836 -2.667,1.695 -4.003,2.538 l 0,-47.587 89.119,0 0,8.004 C 13.351,-1.887 7.205,0.1 1.729,1.876 1.122,1.221 0.209,0.242 0,0"
         style="fill:#841114;fill-opacity:1;fill-rule:nonzero;stroke:none"
         id="path3081"
         inkscape:connector-curvature="0" /></g><g
       id="g3083"
       transform="translate(425.3701,418.895)"
       inkscape:export-filename="S:\jetforward\assets\logo square.png"
       inkscape:export-xdpi="54.130001"
       inkscape:export-ydpi="54.130001"
       style="fill:#000000;fill-opacity:1.0"><path
         d="m 0,0 c -0.184,-2.494 1.494,-4.648 3.748,-4.813 2.248,-0.166 4.232,1.717 4.41,4.21 C 8.342,1.886 6.664,4.04 4.41,4.208 2.162,4.375 0.184,2.491 0,0"
         style="fill:#000000;fill-opacity:1.0;fill-rule:nonzero;stroke:none"
         id="path3085"
         inkscape:connector-curvature="0" /></g></g></svg>